HIERARCHY
ROOT Hips
{
	OFFSET -3.958830 18.904000 13.208200
	CHANNELS 6 Xposition Yposition Zposition Zrotation Yrotation Xrotation 
	JOINT LHipJoint
	{
		OFFSET 0.000000 0.000000 0.000000
		CHANNELS 3 Zrotation Yrotation Xrotation
		JOINT LeftUpLeg
		{
			OFFSET 1.800000 -1.400000 0.085000
			CHANNELS 3 Zrotation Yrotation Xrotation
			JOINT LeftLeg
			{
				OFFSET 2.215000 -6.000000 0.000000
				CHANNELS 3 Zrotation Yrotation Xrotation
				JOINT LeftFoot
				{
					OFFSET 2.500000 -6.900000 0.000000
					CHANNELS 3 Zrotation Yrotation Xrotation
					JOINT LeftToeBase
					{
						OFFSET 0.200000 -0.500000 1.950000
						CHANNELS 3 Zrotation Yrotation Xrotation
						End Site
						{
							OFFSET 0.000000 0.000000 0.000000
						}
					}
				}
			}
		}
	}
	JOINT RHipJoint
	{
		OFFSET 0.000000 0.000000 0.000000
		CHANNELS 3 Zrotation Yrotation Xrotation
		JOINT RightUpLeg
		{
			OFFSET -1.800000 -1.400000 0.085000
			CHANNELS 3 Zrotation Yrotation Xrotation
			JOINT RightLeg
			{
				OFFSET -2.215000 -6.000000 0.000000
				CHANNELS 3 Zrotation Yrotation Xrotation
				JOINT RightFoot
				{
					OFFSET -2.500000 -6.900000 0.000000
					CHANNELS 3 Zrotation Yrotation Xrotation
					JOINT RightToeBase
					{
						OFFSET -0.200000 -0.500000 1.950000
						CHANNELS 3 Zrotation Yrotation Xrotation
						End Site
						{
							OFFSET 0.000000 0.000000 0.000000
						}
					}
				}
			}
		}
	}
	JOINT LowerBack
	{
		OFFSET 0.000000 0.000000 0.000000
		CHANNELS 3 Zrotation Yrotation Xrotation
		JOINT Spine
		{
			OFFSET -0.087000 1.940000 -0.288900
			CHANNELS 3 Zrotation Yrotation Xrotation
			JOINT Spine1
			{
				OFFSET 0.000000 1.950000 0.060000
				CHANNELS 3 Zrotation Yrotation Xrotation
				JOINT Neck
				{
					OFFSET 0.000000 0.000000 0.000000
					CHANNELS 3 Zrotation Yrotation Xrotation
					JOINT Neck1
					{
						OFFSET 0.000000 1.600000 0.340000
						CHANNELS 3 Zrotation Yrotation Xrotation
						JOINT Head
						{
							OFFSET 0.000000 1.667000 -0.240000
							CHANNELS 3 Zrotation Yrotation Xrotation
							End Site
							{
								OFFSET 0.000000 0.000000 0.000000
							}
						}
					}
				}
				JOINT LeftShoulder
				{
					OFFSET 0.000000 0.000000 0.000000
					CHANNELS 3 Zrotation Yrotation Xrotation
					JOINT LeftArm
					{
						OFFSET 2.700000 1.550000 -0.730000
						CHANNELS 3 Zrotation Yrotation Xrotation
						JOINT LeftForeArm
						{
							OFFSET 5.450000 0.000000 0.000000
							CHANNELS 3 Zrotation Yrotation Xrotation
							JOINT LeftHand
							{
								OFFSET 3.450000 0.000000 0.000000
								CHANNELS 3 Zrotation Yrotation Xrotation
								JOINT LeftHandIndex1
								{
									OFFSET 0.750000 0.000000 0.000000
									CHANNELS 3 Zrotation Yrotation Xrotation
									End Site
									{
										OFFSET 0.000000 0.000000 0.000000
									}
								}
							}
						}
					}
				}
				JOINT RightShoulder
				{
					OFFSET 0.000000 0.000000 0.000000
					CHANNELS 3 Zrotation Yrotation Xrotation
					JOINT RightArm
					{
						OFFSET -2.700000 1.550000 -0.730000
						CHANNELS 3 Zrotation Yrotation Xrotation
						JOINT RightForeArm
						{
							OFFSET -5.450000 0.000000 0.000000
							CHANNELS 3 Zrotation Yrotation Xrotation
							JOINT RightHand
							{
								OFFSET -3.450000 0.000000 0.000000
								CHANNELS 3 Zrotation Yrotation Xrotation
								JOINT RightHandIndex1
								{
									OFFSET -0.750000 0.000000 0.000000
									CHANNELS 3 Zrotation Yrotation Xrotation
									End Site
									{
										OFFSET 0.000000 0.000000 0.000000
									}
								}
							}
						}
					}
				}
			}
		}
	}
}
MOTION
Frames: 14
Frame Time: 0.016667
-0.069970 16.446840 -1.758930 -7.340620 -12.108939 17.446933 -15.589111 12.689694 2.718075 -0.164373 1.628104 6.495181 -7.515447 4.854874 -1.591518 -0.333259 5.295107 3.244534 0.668500 0.185240 0.382670 18.488179 -7.163457 5.100574 17.766382 14.784560 -48.123107 -1.615436 -1.473586 14.070529 0.242758 -0.929820 4.382728 0.283650 0.606940 0.139810 -3.464283 -5.152834 -7.834509 15.105420 -13.438166 8.847270 -8.180330 -11.790649 -0.011572 2.194807 -9.332262 -9.323503 -18.582974 17.725627 11.382402 0.993400 10.561520 -8.872670 -23.058271 -5.317758 1.401811 -52.195831 -2.145252 0.045253 -9.443126 4.354127 -1.535592 -3.997741 2.860320 0.578390 0.347290 -0.339460 0.439280 19.979730 6.202687 7.172656 52.464891 -11.958841 -15.615583 63.048882 61.684960 26.729769 1.691724 -1.995645 -0.428160 0.454540 -0.121490 -0.305370 
-0.072210 16.438370 -1.747290 -7.859040 -12.657569 17.420304 -15.562233 12.802638 2.741691 0.550676 1.485014 6.108566 -8.126173 5.121742 -0.529465 -0.272426 5.257172 3.253277 0.592320 0.054740 0.415010 18.474033 -7.171606 5.243613 18.233134 15.193257 -47.511363 -1.520441 -1.519551 13.903821 0.221201 -0.803665 4.439104 0.146760 0.503540 0.099600 -3.446109 -5.240495 -8.071155 15.226983 -13.301199 11.880933 -7.945750 -11.304746 -3.378474 3.167559 -9.731560 -9.115988 -19.130153 16.566029 13.023116 -0.397980 10.960820 -10.995670 -23.811389 -2.429676 0.341913 -51.406304 -0.406907 -0.731388 -8.742530 4.625730 -1.464924 -3.901525 2.758525 0.689440 0.234330 -0.275230 0.383830 18.888011 4.109986 7.098284 54.105225 -13.134270 -15.836153 65.169209 62.600372 29.043893 1.809015 -1.873135 -0.436400 0.425770 -0.117420 -0.346930 
-0.073440 16.410320 -1.710160 -8.546697 -13.591199 18.093059 -15.507316 12.801710 2.648730 1.187810 1.326771 4.771706 -9.099393 5.559328 1.892015 -0.194901 5.130016 3.269774 0.583600 0.029620 0.421960 18.502872 -7.196642 5.499421 18.979262 16.189021 -47.524047 -2.107961 -1.420053 14.248661 0.180862 -0.750853 4.455396 0.061690 0.398680 0.104740 -3.536924 -5.007387 -8.246604 16.038912 -13.041428 14.647464 -8.422032 -10.471775 -6.781879 4.033656 -9.867298 -8.737624 -18.932312 15.877172 13.745716 -0.726740 11.320650 -12.697080 -23.921900 1.336975 -0.824640 -50.911956 2.648134 -2.397617 -7.356899 3.911208 -1.388857 -3.799997 2.767048 0.739260 0.135610 -0.204310 0.378660 17.236353 1.182436 6.935966 56.574947 -15.171617 -16.402995 69.359233 64.524408 33.007896 1.940845 -1.829341 -0.377280 0.338670 -0.155550 -0.341400 
-0.075730 16.411930 -1.658660 -8.503008 -13.651735 18.410662 -15.442993 12.931966 2.565864 1.760457 1.136024 2.525942 -10.266655 6.328638 5.896120 -0.108241 5.018298 3.257237 0.589940 0.044650 0.402000 18.502577 -7.371631 5.608846 18.697235 16.265508 -47.358457 -2.026496 -1.422058 13.759786 0.148441 -0.669008 4.484570 -0.010510 0.285490 0.124520 -3.566439 -4.817095 -8.357788 15.967711 -12.922156 18.241868 -8.705957 -9.800566 -11.587993 4.693779 -9.804339 -7.807759 -18.262074 14.865915 14.676857 -0.675390 11.287250 -14.973760 -23.823021 6.429577 -2.775661 -49.440908 4.995736 -3.314558 -6.192548 5.585059 -1.271971 -3.712606 2.800239 0.770380 0.037140 -0.127370 0.384770 15.782221 -3.356037 6.439655 58.229205 -18.379913 -16.752062 74.051202 66.557535 37.795798 2.082474 -1.770984 -0.288240 0.226740 -0.200530 -0.314380 
-0.091960 16.434130 -1.588920 -8.621568 -15.239680 18.041300 -15.392744 13.095210 2.543430 1.718884 1.120036 1.127562 -10.646588 7.123812 9.883442 0.032632 5.024761 3.227465 0.528190 -0.042030 0.362220 18.483416 -7.559508 5.684997 18.870785 16.217154 -45.761270 -2.048162 -1.436120 13.663927 0.122843 -0.624030 4.521675 -0.147760 0.200410 0.126650 -3.548743 -4.683981 -8.500277 14.929499 -12.145471 22.788179 -8.593148 -8.431108 -16.426480 5.226825 -9.909640 -7.768929 -18.399456 14.024642 17.271981 -0.355120 11.201680 -16.498750 -22.384788 10.528627 -3.865517 -48.799596 7.819538 -4.515238 -4.509603 6.574937 -1.061440 -3.631555 2.784809 0.819440 -0.065560 -0.068520 0.371470 13.425868 -6.332794 6.706113 60.472939 -21.800464 -18.095301 76.498429 69.093384 41.471023 2.232211 -1.635662 -0.228460 0.140270 -0.209500 -0.294690 
-0.084320 16.470120 -1.542160 -7.856130 -15.846419 16.998328 -15.346568 13.336839 2.544369 0.830169 0.923410 -1.125434 -10.096507 8.051778 15.971589 0.139161 5.147551 3.129030 0.526470 -0.045590 0.365410 18.438539 -7.875829 5.564701 17.631182 15.148021 -44.472302 -1.038611 -1.639368 13.449535 0.088507 -0.598234 4.529001 -0.216550 0.093060 0.132990 -3.481646 -4.600476 -8.498316 13.041901 -11.463841 27.113630 -7.786826 -7.548243 -19.544088 5.345213 -10.009399 -7.652509 -18.753972 13.193700 19.546131 -0.956810 10.936740 -18.950480 -20.187185 13.746528 -4.642467 -48.997478 9.127486 -5.585642 -3.116419 6.712832 -0.885319 -3.552982 2.796963 0.856470 -0.158860 -0.000050 0.360110 11.188865 -8.690462 6.691831 61.875827 -24.057935 -19.264282 77.345254 71.371061 43.890571 2.336663 -1.540755 -0.162050 0.060430 -0.240200 -0.284510 
-0.080640 16.505930 -1.500990 -6.672731 -15.475341 16.543108 -15.306987 13.444492 2.580239 0.105520 -0.089210 -5.255139 -9.683139 9.280497 23.866284 0.218163 5.729905 2.868692 0.482530 -0.096560 0.343260 18.406211 -8.161523 5.376234 15.909310 13.918860 -44.040009 0.200154 -1.867881 12.939574 0.099681 -0.593626 4.525445 -0.258260 0.079600 0.146530 -3.451169 -4.438606 -8.432173 11.190093 -11.316503 29.594330 -7.072025 -7.494193 -21.113526 5.129062 -9.811810 -7.152500 -18.158443 12.813761 19.796043 -1.250100 10.863070 -20.124840 -18.249498 16.289190 -5.038487 -49.055343 10.830073 -6.955047 -1.517572 5.276134 -0.858587 -3.585587 2.765926 0.862320 -0.166560 0.000990 0.322390 9.677038 -11.085477 6.104201 62.185659 -25.393772 -20.037315 76.459106 73.097045 44.836612 2.337944 -1.482596 -0.151110 0.038640 -0.198490 -0.292140 
-0.084340 16.531150 -1.463450 -5.759545 -15.229933 16.543898 -15.302853 13.328615 2.761203 0.008871 -1.773655 -10.232599 -10.229406 11.072825 32.176272 0.354239 6.882431 2.434151 0.462350 -0.125120 0.356950 18.383709 -8.303491 5.158839 14.715012 12.937997 -43.416727 1.138124 -1.974456 11.479332 0.116251 -0.561237 4.531439 -0.248770 0.100100 0.149720 -3.427668 -4.232501 -8.443657 9.847382 -10.800648 30.475004 -6.871983 -7.194190 -20.617716 4.957010 -9.362110 -6.459474 -16.940069 12.285345 19.599265 -2.351250 10.946470 -20.582380 -17.469948 17.513807 -5.318698 -48.669672 11.948869 -8.034897 1.072647 2.959403 -0.806101 -3.642973 2.703450 0.871790 -0.136900 -0.011700 0.300400 9.032839 -12.487580 5.408259 61.560996 -25.503928 -20.809251 71.362037 73.096931 41.850805 2.171635 -1.633876 -0.186570 0.067740 -0.168720 -0.318600 
-0.089920 16.567350 -1.424950 -5.044303 -14.622898 15.585112 -15.339178 13.168191 3.130477 0.985860 -3.732765 -14.519910 -11.694995 13.479111 39.834596 0.603372 8.415265 1.884837 0.441000 -0.149370 0.361430 18.333472 -8.361488 4.834200 13.611440 11.673506 -41.548610 1.919839 -2.064305 9.898956 0.114613 -0.550096 4.545787 -0.250340 0.107030 0.150690 -3.323418 -4.223642 -8.538224 8.328965 -10.245511 32.258962 -5.949549 -6.631025 -19.851297 4.754330 -9.221995 -6.336610 -16.851327 11.807147 20.771041 -3.428350 10.599820 -21.442860 -16.389461 18.003447 -5.216262 -48.393646 13.087840 -9.150275 1.556620 0.404739 -0.992028 -3.670786 2.631538 0.899240 -0.122810 -0.006670 0.274850 8.338204 -12.773872 5.208030 60.084475 -26.264647 -21.620352 70.006565 73.625282 41.226529 2.085234 -1.645545 -0.210410 0.107460 -0.129830 -0.342650 
-0.092260 16.605120 -1.386880 -4.801332 -14.434756 15.048470 -15.380632 12.848805 3.581008 2.770116 -5.675982 -19.089171 -13.708506 16.286529 46.341310 0.841499 9.993813 1.331693 0.495400 -0.098670 0.429610 18.309352 -8.348172 4.530320 12.698972 10.755812 -39.630928 2.900082 -2.082574 8.217345 0.095482 -0.568497 4.521180 -0.190650 0.089970 0.146210 -3.268377 -4.074330 -8.668559 7.455540 -9.614453 33.503390 -5.511463 -5.896359 -19.573859 4.336833 -9.126381 -5.321694 -16.640557 11.681031 21.487653 -3.756180 10.095800 -22.369310 -16.234639 19.645986 -5.871895 -46.395971 13.825073 -9.741628 2.341974 -3.373897 -1.205787 -3.666741 2.594144 0.925410 -0.119720 -0.001230 0.254440 8.760823 -14.319023 4.384748 55.798599 -26.942928 -20.564598 68.215241 72.840361 39.954916 1.983316 -1.737921 -0.230940 0.142920 -0.127220 -0.380370 
-0.097590 16.605030 -1.356790 -4.207661 -14.652733 15.033313 -15.466129 12.355998 4.154848 4.821367 -7.597179 -24.406697 -16.725978 19.904998 52.001813 1.195725 11.645131 0.790288 0.583830 0.003120 0.492490 18.284291 -8.184644 4.294053 11.896733 10.320716 -39.166252 3.339786 -2.070589 7.861302 0.070240 -0.626640 4.468270 -0.114340 0.065350 0.187800 -3.172545 -3.903657 -8.878899 6.161271 -8.329639 32.972846 -4.937405 -4.929938 -17.729275 3.941954 -8.556878 -4.592929 -15.448619 10.700895 21.965762 -3.721690 9.301640 -21.338800 -15.549614 20.382512 -6.064677 -45.509343 13.851316 -10.428392 4.473345 -8.604365 -1.370606 -3.656477 2.669956 0.892660 -0.094640 0.018690 0.270610 8.646568 -15.089921 3.859071 53.050023 -27.510081 -20.680514 62.192644 74.064663 37.045577 1.817994 -1.982873 -0.193870 0.114170 -0.169040 -0.383790 
-0.075100 16.598980 -1.349160 -3.483518 -14.307605 15.820234 -15.550828 11.726572 4.797234 6.784770 -9.668043 -30.984258 -19.321797 23.352082 57.013955 1.441916 13.160191 0.340285 0.641790 0.096570 0.525900 18.295829 -7.946290 4.092553 10.397448 10.184915 -40.205402 3.956566 -2.130503 8.501117 0.082466 -0.706639 4.432388 -0.001520 0.107870 0.156070 -3.153978 -3.658761 -9.069862 5.871189 -7.716101 30.862644 -4.921857 -4.584157 -14.879149 3.355329 -8.250295 -3.826507 -14.687365 10.204737 21.383311 -3.776130 8.502070 -20.000070 -15.175653 20.156130 -6.273031 -44.824487 12.219475 -9.936059 8.203219 -8.998090 -1.470730 -3.733121 2.634914 0.856060 -0.035060 -0.021870 0.281980 9.128300 -15.114721 3.089482 50.807525 -26.505635 -21.349892 49.927813 75.410333 30.128383 1.585707 -2.191124 -0.236340 0.187920 -0.177460 -0.397160 
-0.039770 16.604220 -1.337190 -4.089442 -15.003834 16.253806 -15.567134 11.105556 5.347445 9.771225 -10.484506 -36.720401 -22.180179 26.765948 59.995765 1.704061 14.292727 0.016706 0.728470 0.234850 0.552290 18.365439 -7.823716 3.928804 10.121788 10.275725 -39.633681 4.504065 -2.167276 8.826441 0.063295 -0.803110 4.387695 0.099400 0.104610 0.153630 -3.321173 -3.142438 -9.238213 7.435548 -7.392997 29.785161 -5.881350 -3.761970 -12.798160 2.900338 -8.207608 -3.367061 -14.445132 9.939699 21.612526 -3.218900 7.771160 -18.953980 -15.335988 19.634402 -6.310712 -42.845295 11.358277 -9.377384 11.311607 -9.809918 -1.520538 -3.742315 2.688300 0.799090 -0.011940 -0.017570 0.317740 9.653330 -14.533342 2.712799 48.357547 -26.087793 -21.988150 36.918665 76.664786 22.025851 1.481805 -2.303165 -0.209110 0.200590 -0.226400 -0.374360 
-0.037040 16.615920 -1.323030 -4.007714 -14.465084 15.624121 -15.595607 10.732145 5.749020 12.106095 -11.067550 -40.066493 -24.069800 29.625876 62.731727 1.891677 15.255655 -0.229847 0.737780 0.256220 0.568680 18.391640 -7.746265 3.767846 9.713730 10.061556 -38.962187 4.639870 -2.226361 9.183454 0.075631 -0.863194 4.383844 0.141940 0.136360 0.121000 -3.359863 -2.899956 -9.368852 7.583659 -7.118584 29.517385 -6.133764 -3.403395 -11.074772 2.522299 -7.994442 -3.001297 -14.185826 9.495780 22.720354 -2.996660 6.971130 -18.439190 -15.043327 19.068316 -6.135788 -40.761988 10.476056 -8.683033 15.124833 -10.630315 -1.680419 -3.792758 2.651033 0.782200 0.019460 -0.049700 0.304840 9.837087 -14.111606 2.230394 45.835847 -25.434651 -22.312201 21.653227 75.645979 11.791843 1.402312 -2.223067 -0.240480 0.265670 -0.209270 -0.388210 
